<svg width="25" height="26" viewBox="0 0 25 26" fill="none" xmlns="http://www.w3.org/2000/svg">
<path d="M18 22H3C2.724 22 2.5 21.776 2.5 21.5V3.50001C2.5 2.122 3.621 1 5.00001 1H16C17.379 1 18.5 2.122 18.5 3.50001V21.5C18.5 21.776 18.276 22 18 22ZM3.5 21H17.5V3.50001C17.5 2.673 16.827 2 16 2H5.00001C4.173 2 3.5 2.673 3.5 3.50001V21Z" fill="#1F2125" stroke="black" stroke-width="0.218182"/>
<path d="M13.9922 10H6.99219C6.16519 10 5.49219 9.32701 5.49219 8.50001V5.5C5.49219 4.673 6.16519 4 6.99219 4H13.9922C14.8192 4 15.4922 4.673 15.4922 5.5V8.50001C15.4922 9.32701 14.8192 10 13.9922 10ZM6.99219 5C6.71719 5 6.49219 5.224 6.49219 5.5V8.50001C6.49219 8.77601 6.71719 9.00001 6.99219 9.00001H13.9922C14.2672 9.00001 14.4922 8.77601 14.4922 8.50001V5.5C14.4922 5.224 14.2672 5 13.9922 5H6.99219Z" fill="#1F2125" stroke="black" stroke-width="0.218182"/>
<path d="M20 25H1C0.724 25 0.5 24.776 0.5 24.5V23.5C0.5 22.122 1.621 21 3.00001 21H18C19.379 21 20.5 22.122 20.5 23.5V24.5C20.5 24.776 20.276 25 20 25ZM1.5 24H19.5V23.5C19.5 22.673 18.827 22 18 22H3.00001C2.173 22 1.5 22.673 1.5 23.5V24Z" fill="#1F2125" stroke="black" stroke-width="0.218182"/>
<path d="M9.99201 18.9999C9.89601 18.9999 9.80001 18.9729 9.71501 18.9159C9.48601 18.7629 9.42301 18.4529 9.57601 18.2229L11.057 15.9999H8.99201C8.80701 15.9999 8.63801 15.8979 8.55201 15.7359C8.46401 15.5729 8.47401 15.3759 8.57601 15.2229L10.576 12.2229C10.73 11.9919 11.042 11.9309 11.269 12.0839C11.498 12.2369 11.561 12.5469 11.408 12.7769L9.92701 14.9999H11.992C12.177 14.9999 12.346 15.1019 12.432 15.2639C12.52 15.4269 12.51 15.6239 12.408 15.7769L10.408 18.7769C10.311 18.9219 10.153 18.9999 9.99201 18.9999Z" fill="#1F2125" stroke="black" stroke-width="0.218182"/>
<path d="M22.4922 11C21.3892 11 20.4922 10.103 20.4922 9.00001V6.5C20.4922 6.224 20.7162 6 20.9922 6H23.9922C24.2682 6 24.4922 6.224 24.4922 6.5V9.00001C24.4922 10.103 23.5952 11 22.4922 11ZM21.4922 7V9.00001C21.4922 9.55101 21.9402 10 22.4922 10C23.0442 10 23.4922 9.55101 23.4922 9.00001V7H21.4922Z" fill="#1F2125" stroke="black" stroke-width="0.218182"/>
<path d="M20.25 18C18.733 18 17.5 16.767 17.5 15.25V14C17.5 13.724 17.724 13.5 18 13.5C18.276 13.5 18.5 13.724 18.5 14V15.25C18.5 16.215 19.285 17 20.25 17C21.215 17 22 16.215 22 15.25V10.5C22 10.224 22.224 10 22.5 10C22.776 10 23 10.224 23 10.5V15.25C23 16.767 21.767 18 20.25 18Z" fill="#1F2125" stroke="black" stroke-width="0.218182"/>
<path d="M22.5 7.00001C22.224 7.00001 22 6.77601 22 6.50001V3.5C22 3.224 22.224 3 22.5 3C22.776 3 23 3.224 23 3.5V6.50001C23 6.77601 22.776 7.00001 22.5 7.00001Z" fill="#1F2125" stroke="black" stroke-width="0.218182"/>
</svg>
