<svg width="25" height="26" viewBox="0 0 25 26" fill="none" xmlns="http://www.w3.org/2000/svg">
<path d="M22.3675 4.0228H21.4916V2.392C21.4916 1.6252 20.8518 1 20.0645 1H16.4044C15.6182 1 14.9773 1.624 14.9773 2.392V4.0228H14.1013C12.9239 4.0228 11.9668 4.9576 11.9668 6.1048V22.9168C11.9668 24.0652 12.9239 24.9988 14.1013 24.9988H22.3651C23.5424 24.9988 24.4996 24.064 24.4996 22.9168V6.1048C24.4996 4.9564 23.5412 4.0228 22.3651 4.0228H22.3675ZM15.4706 2.392C15.4706 1.8892 15.8901 1.48 16.4056 1.48H20.0657C20.5812 1.48 21.0007 1.8892 21.0007 2.392V4.0228H15.4718V2.392H15.4706ZM24.0099 22.918C24.0099 23.8012 23.273 24.52 22.3675 24.52H14.1038C13.1983 24.52 12.4614 23.8012 12.4614 22.918V6.1048C12.4614 5.2216 13.1983 4.5028 14.1038 4.5028H22.3675C23.273 4.5028 24.0099 5.2216 24.0099 6.1048V22.9168V22.918Z" fill="#1F2125" stroke="#1F2125" stroke-width="0.8"/>
<path d="M19.8655 14.2709H16.9781L18.527 11.1953C18.5873 11.0765 18.5368 10.9325 18.415 10.8737C18.2932 10.8149 18.1456 10.8641 18.0853 10.9829L16.3629 14.4041C16.326 14.4785 16.3297 14.5661 16.3752 14.6369C16.4208 14.7077 16.4995 14.7497 16.5844 14.7497H19.4718L17.9229 17.8253C17.8626 17.9441 17.9131 18.0881 18.0349 18.1469C18.0693 18.1637 18.1062 18.1721 18.1431 18.1721C18.2342 18.1721 18.3215 18.1229 18.3646 18.0377L20.087 14.6165C20.1239 14.5421 20.1202 14.4545 20.0747 14.3837C20.0292 14.3129 19.9504 14.2709 19.8655 14.2709Z" fill="#1F2125" stroke="#1F2125" stroke-width="0.8"/>
<path d="M10.6879 15.424C9.30507 16.0672 8.41189 17.4472 8.41189 18.9424V22.3648C8.41189 23.554 7.42029 24.5212 6.20109 24.5212C4.98189 24.5212 3.99029 23.554 3.99029 22.3648V10.2208C5.66469 10.0972 6.98846 8.7304 6.98846 7.0672V4.264C6.98846 4.132 6.87774 4.024 6.74241 4.024H5.5146V1.24C5.5146 1.108 5.40387 1 5.26854 1C5.13321 1 5.02249 1.108 5.02249 1.24V4.0228H2.46598V1.24C2.46598 1.108 2.35525 1 2.21992 1C2.08459 1 1.97387 1.108 1.97387 1.24V4.0228H0.746055C0.610725 4.0228 0.5 4.1308 0.5 4.2628V7.066C0.5 8.7304 1.82377 10.0972 3.49818 10.2196V22.3636C3.49818 23.818 4.71123 25 6.20109 25C7.69095 25 8.904 23.8168 8.904 22.3636V18.9412C8.904 17.6308 9.68768 16.42 10.8995 15.8572C11.0225 15.7996 11.0742 15.6568 11.0152 15.5368C10.9573 15.4168 10.8097 15.3664 10.6867 15.4228L10.6879 15.424ZM0.992109 7.066V4.5028H6.49512V7.066C6.49512 8.5456 5.26116 9.7504 3.743 9.7504C2.22484 9.7504 0.992109 8.5456 0.992109 7.066Z" fill="#1F2125" stroke="#1F2125" stroke-width="0.8"/>
</svg>
