<svg width="25" height="24" viewBox="0 0 25 24" fill="none" xmlns="http://www.w3.org/2000/svg">
<g clip-path="url(#clip0_2002_2917)">
<path fill-rule="evenodd" clip-rule="evenodd" d="M16.1128 1.35082C15.8063 1.16042 15.4209 1.14994 15.1044 1.32339L2.47335 8.24595L8.63539 12.1724C9.1333 12.4896 9.76544 12.507 10.28 12.2176L22.5223 5.33129L16.1128 1.35082ZM23.1008 6.383L19.9638 8.14759V16.4714L22.6023 14.9414C22.9109 14.7625 23.1008 14.4328 23.1008 14.0761V6.383ZM18.7635 17.1663V8.82275L14.9077 10.9916V19.3876L18.7635 17.1663ZM13.7074 20.0814V11.6668L10.0251 13.7381V22.231L13.7074 20.0814ZM8.82481 22.1596V13.7163L1.89569 9.30112V17.0378C1.89569 17.3735 2.06408 17.6868 2.34404 17.872L8.82481 22.1596ZM14.6101 20.9443L19.6647 18.0323L23.2044 15.9798C23.8833 15.5862 24.3011 14.8608 24.3011 14.0761V5.91309C24.3011 5.35967 24.0152 4.84552 23.5451 4.55355L16.7461 0.331161C16.0716 -0.0877119 15.2238 -0.110773 14.5275 0.270813L1.52663 7.39608C1.01406 7.67699 0.695404 8.21501 0.695404 8.79951V17.0378C0.695404 17.7763 1.06585 18.4656 1.68176 18.873L8.15985 23.1588C8.92231 23.6633 9.9051 23.6908 10.6946 23.2299L14.6071 20.946L14.6101 20.9443Z" fill="#1F2125"/>
</g>
<defs>
<clipPath id="clip0_2002_2917">
<rect width="24" height="24" fill="white" transform="translate(0.5)"/>
</clipPath>
</defs>
</svg>
