<svg width="60" height="60" viewBox="0 0 60 60" fill="none" xmlns="http://www.w3.org/2000/svg">
<g clip-path="url(#clip0_155_9485)">
<path d="M10 15C10 13.6739 10.5268 12.4021 11.4645 11.4645C12.4022 10.5268 13.6739 10 15 10H45C46.3261 10 47.5979 10.5268 48.5356 11.4645C49.4732 12.4021 50 13.6739 50 15V45C50 46.3261 49.4732 47.5979 48.5356 48.5355C47.5979 49.4732 46.3261 50 45 50H15C13.6739 50 12.4022 49.4732 11.4645 48.5355C10.5268 47.5979 10 46.3261 10 45V15Z" stroke="#1464F4" stroke-width="2.5" stroke-linecap="round" stroke-linejoin="round"/>
<path d="M30 10V16.25C30 16.5815 29.8683 16.8995 29.6339 17.1339C29.3995 17.3683 29.0815 17.5 28.75 17.5C27.7555 17.5 26.8016 17.8951 26.0984 18.5983C25.3951 19.3016 25 20.2554 25 21.25C25 22.2446 25.3951 23.1984 26.0984 23.9017C26.8016 24.6049 27.7555 25 28.75 25C29.0815 25 29.3995 25.1317 29.6339 25.3661C29.8683 25.6005 30 25.9185 30 26.25V30" stroke="#1464F4" stroke-width="2.5" stroke-linecap="round" stroke-linejoin="round"/>
<path d="M30 30V33.75C30 34.0815 30.1317 34.3995 30.3661 34.6339C30.6006 34.8683 30.9185 35 31.25 35C32.2446 35 33.1984 35.3951 33.9017 36.0983C34.6049 36.8016 35 37.7554 35 38.75C35 39.7446 34.6049 40.6984 33.9017 41.4016C33.1984 42.1049 32.2446 42.5 31.25 42.5C30.9185 42.5 30.6006 42.6317 30.3661 42.8661C30.1317 43.1005 30 43.4185 30 43.75V50" stroke="#1464F4" stroke-width="2.5" stroke-linecap="round" stroke-linejoin="round"/>
<path d="M50 30H43.75C43.4185 30 43.1006 29.8683 42.8661 29.6339C42.6317 29.3995 42.5 29.0815 42.5 28.75C42.5 27.7554 42.1049 26.8016 41.4017 26.0983C40.6984 25.3951 39.7446 25 38.75 25C37.7555 25 36.8016 25.3951 36.0984 26.0983C35.3951 26.8016 35 27.7554 35 28.75C35 29.0815 34.8683 29.3995 34.6339 29.6339C34.3995 29.8683 34.0815 30 33.75 30H30" stroke="#1464F4" stroke-width="2.5" stroke-linecap="round" stroke-linejoin="round"/>
<path d="M30 30H26.25C25.9185 30 25.6006 30.1317 25.3661 30.3661C25.1317 30.6005 25 30.9185 25 31.25C25 32.2446 24.6049 33.1984 23.9017 33.9017C23.1984 34.6049 22.2446 35 21.25 35C20.2555 35 19.3016 34.6049 18.5984 33.9017C17.8951 33.1984 17.5 32.2446 17.5 31.25C17.5 30.9185 17.3683 30.6005 17.1339 30.3661C16.8995 30.1317 16.5815 30 16.25 30H10" stroke="#1464F4" stroke-width="2.5" stroke-linecap="round" stroke-linejoin="round"/>
</g>
<defs>
<clipPath id="clip0_155_9485">
<rect width="60" height="60" fill="white"/>
</clipPath>
</defs>
</svg>
