<svg width="61" height="60" viewBox="0 0 61 60" fill="none" xmlns="http://www.w3.org/2000/svg">
<g clip-path="url(#clip0_155_9496)">
<path d="M7.70001 30C7.70001 32.9547 8.28199 35.8806 9.41272 38.6104C10.5435 41.3402 12.2008 43.8206 14.2901 45.9099C16.3794 47.9992 18.8598 49.6566 21.5896 50.7873C24.3195 51.918 27.2453 52.5 30.2 52.5C33.1548 52.5 36.0806 51.918 38.8104 50.7873C41.5402 49.6566 44.0206 47.9992 46.1099 45.9099C48.1992 43.8206 49.8566 41.3402 50.9873 38.6104C52.118 35.8806 52.7 32.9547 52.7 30C52.7 27.0453 52.118 24.1194 50.9873 21.3896C49.8566 18.6598 48.1992 16.1794 46.1099 14.0901C44.0206 12.0008 41.5402 10.3434 38.8104 9.21271C36.0806 8.08198 33.1548 7.5 30.2 7.5C27.2453 7.5 24.3195 8.08198 21.5896 9.21271C18.8598 10.3434 16.3794 12.0008 14.2901 14.0901C12.2008 16.1794 10.5435 18.6598 9.41272 21.3896C8.28199 24.1194 7.70001 27.0453 7.70001 30Z" stroke="#1464F4" stroke-width="2.5" stroke-linecap="round" stroke-linejoin="round"/>
<path d="M37.2 22.4999C36.7471 21.7143 36.0891 21.0667 35.2965 20.6263C34.5038 20.1859 33.6063 19.9694 32.7 19.9999H27.7C26.3739 19.9999 25.1022 20.5267 24.1645 21.4644C23.2268 22.4021 22.7 23.6738 22.7 24.9999C22.7 26.326 23.2268 27.5978 24.1645 28.5354C25.1022 29.4731 26.3739 29.9999 27.7 29.9999H32.7C34.0261 29.9999 35.2979 30.5267 36.2355 31.4644C37.1732 32.4021 37.7 33.6738 37.7 34.9999C37.7 36.326 37.1732 37.5978 36.2355 38.5354C35.2979 39.4731 34.0261 39.9999 32.7 39.9999H27.7C26.7937 40.0304 25.8962 39.8139 25.1036 39.3735C24.3109 38.9331 23.6529 38.2855 23.2 37.4999" stroke="#1464F4" stroke-width="2.5" stroke-linecap="round" stroke-linejoin="round"/>
<path d="M30.2 17.5V42.5" stroke="#1464F4" stroke-width="2.5" stroke-linecap="round" stroke-linejoin="round"/>
</g>
<defs>
<clipPath id="clip0_155_9496">
<rect width="60" height="60" fill="white" transform="translate(0.200012)"/>
</clipPath>
</defs>
</svg>
