<svg width="61" height="60" viewBox="0 0 61 60" fill="none" xmlns="http://www.w3.org/2000/svg">
<g clip-path="url(#clip0_155_9492)">
<path d="M30.3972 52.5C26.5052 51.4905 22.8559 49.7089 19.666 47.2612C16.4762 44.8135 13.8109 41.7495 11.8287 38.2513C9.84637 34.7532 8.5875 30.8922 8.12686 26.898C7.66621 22.9037 8.01319 18.8575 9.14717 15C16.936 15.3564 24.5576 12.6664 30.3972 7.5C36.2367 12.6664 43.8583 15.3564 51.6472 15C52.8382 19.0538 53.1602 23.3133 52.5922 27.5" stroke="#1464F4" stroke-width="2.5" stroke-linecap="round" stroke-linejoin="round"/>
<path d="M45.4003 54.9991L53.7753 46.7891C54.2889 46.2907 54.6974 45.6945 54.9768 45.0356C55.2562 44.3767 55.4007 43.6686 55.4019 42.9529C55.403 42.2373 55.2608 41.5287 54.9836 40.8689C54.7064 40.2091 54.2998 39.6116 53.7878 39.1116C52.7432 38.0899 51.3408 37.5166 49.8796 37.5138C48.4184 37.511 47.0139 38.0789 45.9653 39.0966L45.4053 39.6466L44.8478 39.0966C43.8033 38.0757 42.4015 37.5028 40.9409 37.5C39.4803 37.4972 38.0763 38.0647 37.0278 39.0816C36.5141 39.5798 36.1053 40.1758 35.8258 40.8346C35.5462 41.4934 35.4014 42.2015 35.4 42.9171C35.3986 43.6328 35.5406 44.3415 35.8176 45.0013C36.0946 45.6612 36.501 46.2588 37.0128 46.7591L45.4003 54.9991Z" stroke="#1464F4" stroke-width="2.5" stroke-linecap="round" stroke-linejoin="round"/>
</g>
<defs>
<clipPath id="clip0_155_9492">
<rect width="60" height="60" fill="white" transform="translate(0.400024)"/>
</clipPath>
</defs>
</svg>
