<svg width="54" height="54" viewBox="0 0 54 54" fill="white" xmlns="http://www.w3.org/2000/svg">
    <path d="M26.2929 20.2929L19.2071 13.2071C18.8166 12.8166 18.1834 12.8166 17.7929 13.2071L13.2071 17.7929C12.8166 18.1834 12.8166 18.8166 13.2071 19.2071L20.2929 26.2929C20.6834 26.6834 20.6834 27.3166 20.2929 27.7071L13.2071 34.7929C12.8166 35.1834 12.8166 35.8166 13.2071 36.2071L17.7929 40.7929C18.1834 41.1834 18.8166 41.1834 19.2071 40.7929L26.2929 33.7071C26.6834 33.3166 27.3166 33.3166 27.7071 33.7071L34.7929 40.7929C35.1834 41.1834 35.8166 41.1834 36.2071 40.7929L40.7929 36.2071C41.1834 35.8166 41.1834 35.1834 40.7929 34.7929L33.7071 27.7071C33.3166 27.3166 33.3166 26.6834 33.7071 26.2929L40.7929 19.2071C41.1834 18.8166 41.1834 18.1834 40.7929 17.7929L36.2071 13.2071C35.8166 12.8166 35.1834 12.8166 34.7929 13.2071L27.7071 20.2929C27.3166 20.6834 26.6834 20.6834 26.2929 20.2929Z"/>
</svg>